#!OML:ASF E:/inclinewalkrobotboard/Project1/Captureday1/Session1/subject1.ASF
:FULLY-SPECIFIED
:DEGREES
226
root 0 0 0 44.99854079614735 -47.13524519298174 -18.503980331223346
lowerback -6.492021080501544 3.602673979636736 -0.4834382379896275
upperback -13.439777065604552 4.309423423656618 -0.08041257409580815
thorax -11.039324700863585 2.111297363158382 0.6800502932340424
lowerneck -11.436977343547975 6.7608274377564745 4.437084628217901
upperneck 18.180919178972694 7.230349078023098 7.2800152558739715
head 7.636925498223087 4.226551171994286 2.1615109127511793
rclavicle 9.16739459714327E-16 -1.830394684217927E-15
rhumerus 7.873478787394573 -22.476858119500122 -48.48047959390054
rradius 27.930342471943206
rwrist 21.255566125902938
rhand 0.8202077772805012 7.382100206549207
rfingers 7.125020000000029
rthumb 26.439471949631894 -19.67285692456334
lclavicle 1.4446814794257469E-15 -9.201915012979077E-16
lhumerus -10.544952216529229 3.886765038443002 51.375837293078035
lradius 35.61759787058299
lwrist -7.795705662350738
lhand -1.770814221893044 23.327115030338334
lfingers 7.125019999999975
lthumb 23.503573444681173 50.50133261695948
rfemur 58.787364147185734 -81.77082924233397 -55.961337624972586
rtibia 40.21463011118824
rfoot -18.420722734576007 -17.955979272352405
rtoes 21.620791576304924
lfemur -44.72746183079251 8.217488902070329 -27.122878662785375
ltibia 44.049534444840475
lfoot -22.765405790251908 14.902852227621102
ltoes 10.871370548691269
227
root 0 0 0 44.99936382262233 -47.13982486542561 -18.504687483498085
lowerback -6.491113536150705 3.6029105311239866 -0.48354605838732384
upperback -13.440286682782503 4.309569609846415 -0.08085091275469125
thorax -11.040341727667137 2.111373344683125 0.6796910073482996
lowerneck -11.437094768143545 6.762100123039004 4.4377424983788485
upperneck 18.178870092562498 7.231904887748396 7.28081612795218
head 7.63616422905704 4.227375221805454 2.161784591698048
rclavicle 9.168706188812964E-16 -1.8304747708448707E-15
rhumerus 7.868393391892024 -22.476655091939485 -48.48174954325604
rradius 27.931068602989928
rwrist 21.25284160346762
rhand 0.8180427330467275 7.384141218166201
rfingers 7.125020000000029
rthumb 26.43740697539946 -19.67116124023062
lclavicle 1.4464779320444507E-15 -9.193796167449726E-16
lhumerus -10.549001742821918 3.8825687999954406 51.38608351555705
lradius 35.62010471896271
lwrist -7.789162324530963
lhand -1.7718559660246331 23.326115214085323
lfingers 7.125019999999975
lthumb 23.502081173748266 50.50033065414164
rfemur 58.771872492049354 -81.75382832230827 -55.94472017623313
rtibia 40.21472742341489
rfoot -18.4201193812742 -17.95395339104001
rtoes 21.61931549436835
lfemur -44.722367607800635 8.21575120722983 -27.121924350290993
ltibia 44.048128682886315
lfoot -22.76386626031065 14.90040336155543
ltoes 10.869298924564132
228
root 0 0 0 45.00026712975158 -47.14399669833983 -18.505392118432734
lowerback -6.490373855628773 3.603143853450413 -0.4836194455449996
upperback -13.44074583205493 4.30973390078179 -0.08124819883590906
thorax -11.04122210496294 2.1114544863990568 0.6793528040033592
lowerneck -11.437211803180444 6.7632348718779705 4.438344422816585
upperneck 18.177105046799735 7.233289014573522 7.281518017093886
head 7.635511250012369 4.228109276819306 2.1620238853099436
rclavicle 9.170029783757139E-16 -1.8305461295710656E-15
rhumerus 7.863959747973663 -22.476511146288566 -48.48272853877523
rradius 27.931714638341372
rwrist 21.25045747903512
rhand 0.8161951691161811 7.38589148049529
rfingers 7.125020000000029
rthumb 26.435644963284098 -19.669705136536717
lclavicle 1.4480074076405862E-15 -9.186864171997625E-16
lhumerus -10.552516917915742 3.8789971555847345 51.394861754800374
lradius 35.622216488465455
lwrist -7.7835865625738805
lhand -1.7727988961174859 23.325264745842208
lfingers 7.125019999999975
lthumb 23.500754225644094 50.49948771871984
rfemur 58.75964049265137 -81.74037564738575 -55.931546678073644
rtibia 40.21480318014291
rfoot -18.419587563853163 -17.952350013505434
rtoes 21.618105466486206
lfemur -44.71819848446696 8.214338445628929 -27.121108983898704
ltibia 44.046967864287446
lfoot -22.762674181244822 14.898405185074491
ltoes 10.867642996139317
229
root 0 0 0 45.001151527039156 -47.14767444104896 -18.5060506001312
lowerback -6.489771136604148 3.6033631424899477 -0.4836657681933637
upperback -13.441138877036657 4.309901237433124 -0.08159959878638468
thorax -11.041963867073036 2.111534497940168 0.6790434485052614
lowerneck -11.437328184357305 6.764218098630045 4.43887763433563
upperneck 18.175616743672705 7.234485919703005 7.282114755785038
head 7.634963658366749 4.228744732817098 2.162227091876753
rclavicle 9.171457679084656E-16 -1.8306180097422083E-15
rhumerus 7.85996395100579 -22.476420067796486 -48.48342811290997
rradius 27.932317819268544
rwrist 21.248293050904536
rhand 0.814591106994504 7.38742570973655
rfingers 7.125020000000029
rthumb 26.43411595217756 -19.668426216944432
lclavicle 1.4493205453345432E-15 -9.180946815344418E-16
lhumerus -10.555565214381765 3.8759367659363915 51.40241293211074
lradius 35.62401855661987
lwrist -7.778806129351279
lhand -1.7736333437082425 23.32453389339125
lfingers 7.125019999999975
lthumb 23.49959082252036 50.49876778393661
rfemur 58.7499605014544 -81.72970425142383 -55.92107670442542
rtibia 40.214862262704656
rfoot -18.41911982506908 -17.951077767576237
rtoes 21.61710961556638
lfemur -44.71477635681824 8.213186131338908 -27.12041235147099
ltibia 44.046006784405805
lfoot -22.761749737095148 14.896769676340606
ltoes 10.866314977648212
230
root 0 0 0 45.00196543299233 -47.1508440335148 -18.506642230799354
lowerback -6.489280080406211 3.603562816956959 -0.48369152424349415
upperback -13.441463694937003 4.31006239867998 -0.08190496864684871
thorax -11.0425767227234 2.1116097452790834 0.6787662899785831
lowerneck -11.437442194841296 6.765053011204447 4.439339517645892
upperneck 18.17438120528028 7.23550036618397 7.28261123170501
head 7.634511979700357 4.229283841126379 2.1623960852821558
rclavicle 9.1730308741709E-16 -1.8306956122139373E-15
rhumerus 7.856267791509328 -22.476374979318027 -48.48387038449118
rradius 27.932899944174785
rwrist 21.246272063022104
rhand 0.8131781807957292 7.388795243093198
rfingers 7.125020000000029
rthumb 26.432770338038807 -19.667281789310902
lclavicle 1.4504598622820073E-15 -9.17589588780929E-16
lhumerus -10.5582062860152 3.8732928407643374 51.40894173262009
lradius 35.6255807394536
lwrist -7.7746766305768675
lhand -1.7743547825614812 23.323898135267868
lfingers 7.125019999999975
lthumb 23.498585755873833 50.498141616820526
rfemur 58.742279517874806 -81.72121475751042 -55.912731008911024
rtibia 40.214908421877645
rfoot -18.418710394607693 -17.950065244382586
rtoes 21.616287389598327
lfemur -44.711966479725874 8.212245658334432 -27.119819065281973
ltibia 44.04521114936012
lfoot -22.761032308134418 14.89543029451615
ltoes 10.865248644823971
231
root 0 0 0 45.00268486883254 -47.153529103155535 -18.50715940745291
lowerback -6.4888799227534415 3.603740467495998 -0.4837021910735366
upperback -13.44172478537136 4.310211938191225 -0.08216667095469443
thorax -11.043075308114807 2.111678256044149 0.6785219987471975
lowerneck -11.437551822407485 6.765751015908045 4.439732847813857
upperneck 18.173368008155812 7.2363469378354655 7.283017353350552
head 7.63414425397109 4.2297341337933085 2.1625343436148947
rclavicle 9.174759154869311E-16 -1.8307814474629423E-15
rhumerus 7.85278330451024 -22.47636907630131 -48.48408260829166
rradius 27.933472922819963
rwrist 21.244347468955834
rhand 0.8119187779534283 7.390035663918108
rfingers 7.1250200000000286
rthumb 26.43157241985778 -19.66624242342702
lclavicle 1.4514599841049295E-15 -9.171582719374022E-16
lhumerus -10.560493291460599 3.8709876293694103 51.41461977105267
lradius 35.62695823759536
lwrist -7.771079165420618
lhand -1.774963658906385 23.3233377940391
lfingers 7.125019999999975
lthumb 23.497730481982792 50.49758636153774
rfemur 58.73616650458763 -81.71443968263117 -55.906057312934685
rtibia 40.2149445265757
rfoot -18.418353791212493 -17.949256743185174
rtoes 21.61560645855408
lfemur -44.70966233311492 8.21147891591449 -27.119316153400256
ltibia 44.044553588722266
lfoot -22.760475488548067 14.894334628194105
ltoes 10.86439267218346
232
root 0 0 0 45.003301699390576 -47.15577078985845 -18.507601831072886
lowerback -6.4885537138838645 3.603895556582556 -0.4837022321828667
upperback -13.441929498873783 4.310346839770311 -0.08238822882601315
thorax -11.043475530867397 2.111739087243596 0.6783097177689321
lowerneck -11.43765522351086 6.7663268043276625 4.440062972228496
upperneck 18.172545859518095 7.237044073307285 7.2833447309363315
head 7.633848231072518 4.230105242450889 2.1626458643537316
rclavicle 9.176635218841714E-16 -1.8308764037506322E-15
rhumerus 7.849454844120283 -22.476396150099504 -48.48409285309381
rradius 27.934042764376578
rwrist 21.242490667971477
rhand 0.8107854591489403 7.391171973078966
rfingers 7.1250200000000286
rthumb 26.430496084067215 -19.665287562752567
lclavicle 1.4523484204458736E-15 -9.167897748040342E-16
lhumerus -10.562472562246164 3.868958584867919 51.41958823563269
lradius 35.628193683069796
lwrist -7.767917670253827
lhand -1.7754637899405026 23.32283742276501
lfingers 7.125019999999975
lthumb 23.497014580862267 50.49708458727884
rfemur 58.73128687527408 -81.70901574149198 -55.90070369922573
rtibia 40.214972778803926
rfoot -18.418044569960596 -17.9486089759585
rtoes 21.615040885527478
lfemur -44.70777768527422 8.210855351690402 -27.118892112812176
ltibia 44.044011647309866
lfoot -22.760043655091636 14.89344042717546
ltoes 10.863706677532262
